<?xml version="1.0" encoding="UTF-8" standalone="no"?>
<svg width="32px" height="26px" viewBox="0 0 32 26" version="1.1" xmlns="http://www.w3.org/2000/svg" xmlns:xlink="http://www.w3.org/1999/xlink" xmlns:sketch="http://www.bohemiancoding.com/sketch/ns">
    <!-- Generator: Sketch 3.3.1 (12005) - http://www.bohemiancoding.com/sketch -->
    <title>Shape</title>
    <desc>Created with Sketch.</desc>
    <defs></defs>
    <g id="Page-1" stroke="none" stroke-width="1" fill="none" fill-rule="evenodd" sketch:type="MSPage">
        <path d="M32,3.076 C30.823,3.598 29.557,3.951 28.229,4.11 C29.584,3.297 30.625,2.011 31.116,0.478 C29.847,1.23 28.442,1.777 26.947,2.071 C25.749,0.795 24.043,-0.002 22.155,-0.002 C18.529,-0.002 15.59,2.937 15.59,6.563 C15.59,7.078 15.648,7.579 15.76,8.059 C10.304,7.785 5.466,5.171 2.228,1.199 C1.663,2.169 1.339,3.296 1.339,4.5 C1.339,6.778 2.498,8.787 4.26,9.965 C3.184,9.931 2.172,9.636 1.286,9.144 C1.285,9.171 1.285,9.199 1.285,9.227 C1.285,12.408 3.548,15.061 6.551,15.664 C6,15.814 5.42,15.894 4.821,15.894 C4.398,15.894 3.987,15.853 3.586,15.776 C4.421,18.384 6.846,20.282 9.719,20.335 C7.472,22.096 4.641,23.145 1.565,23.145 C1.035,23.145 0.513,23.114 -0.001,23.053 C2.904,24.916 6.355,26.003 10.063,26.003 C22.139,26.003 28.742,15.999 28.742,7.323 C28.742,7.038 28.736,6.755 28.723,6.474 C30.006,5.548 31.119,4.392 31.999,3.076 L32,3.076 Z" id="Shape" fill="#FFFFFF" sketch:type="MSShapeGroup"></path>
    </g>
</svg>