<?xml version="1.0" encoding="UTF-8" standalone="no"?>
<svg width="32px" height="32px" viewBox="0 0 32 32" version="1.1" xmlns="http://www.w3.org/2000/svg" xmlns:xlink="http://www.w3.org/1999/xlink">
    <!-- Generator: Sketch 41.2 (35397) - http://www.bohemiancoding.com/sketch -->
    <title>icon_instagram</title>
    <desc>Created with Sketch.</desc>
    <defs></defs>
    <g id="Page-1" stroke="none" stroke-width="1" fill="none" fill-rule="evenodd">
        <g id="icon_instagram" fill="#FFFFFF">
            <path d="M29.0686667,16.0101079 C29.1105079,16.0101079 29.0268254,16.0101079 29.0686667,16.0101079 C29.0686667,14.7403937 29.0934286,13.4700444 29.0616825,12.2011556 C29.03,10.9341714 28.9859365,9.66445714 28.8691746,8.4031873 C28.6047937,5.54693333 26.7980635,3.54991746 23.9590159,3.20712381 C21.9830794,2.96858413 19.9729206,2.94280635 17.978254,2.94572698 C14.786254,2.95048889 11.5891111,2.96648889 8.40396825,3.14902857 C5.54295238,3.31296508 3.54987302,5.20191746 3.20714286,8.04090159 C2.96860317,10.0169016 2.9428254,12.0269968 2.94574603,14.021727 C2.95044444,17.213727 2.97171429,20.4103619 3.14815873,23.5960762 C3.29857143,26.3101079 4.97292063,28.1688381 7.63780952,28.7186159 C8.86955556,28.9727111 10.1562222,29.0410921 11.4189524,29.049473 C15.0256825,29.073346 18.6332381,29.0432508 22.2398413,28.9922032 C23.5884762,28.9730921 24.929619,28.7844571 26.1268889,28.0910603 C28.0814921,26.9590603 28.8500635,25.1199492 28.9247302,22.9864889 C29.006,20.6636317 29.0686667,18.3357587 29.0686667,16.0101079 M3.17460317e-05,21.7777905 L3.17460317e-05,10.2222349 C0.0584444444,9.50839365 0.103777778,8.79315556 0.177555556,8.08090159 C0.632857143,3.68610794 3.686,0.633028571 8.08104762,0.177536508 C8.7932381,0.10375873 9.5084127,0.0584888889 10.222254,1.26984127e-05 L21.7778095,1.26984127e-05 C22.4915873,0.0584888889 23.2067619,0.10375873 23.9189524,0.177536508 C28.314,0.633028571 31.3652381,3.68420317 31.822381,8.08090159 C31.8964762,8.79315556 31.9415556,9.50839365 32.0000317,10.2222349 L32.0000317,21.7777905 C31.9415556,22.4916317 31.8964762,23.2068698 31.822381,23.9191238 C31.3651746,28.3158857 28.3159683,31.3650286 23.9189524,31.8224254 C23.2067619,31.8965206 22.4915873,31.9415365 21.7778095,32.0000127 L10.222254,32.0000127 C9.5084127,31.9415365 8.7932381,31.8965206 8.08104762,31.8224254 C3.68409524,31.3650921 0.632857143,28.313854 0.177555556,23.9191238 C0.103777778,23.2068698 0.0584444444,22.4916317 3.17460317e-05,21.7777905" id="box"></path>
            <path d="M21.2661968,16.0246921 C21.2671492,13.0871683 18.9600381,10.736946 16.0722921,10.7338349 C13.0835937,10.7305333 10.7361016,13.021454 10.7338159,15.9435492 C10.7314667,18.9234222 13.0298794,21.2645651 15.9594032,21.2662159 C18.9293079,21.2678032 21.2652444,18.9605651 21.2661968,16.0246921 M24.2613714,15.9856444 C24.2630222,20.5523746 20.568546,24.2597397 16.0143873,24.261327 C11.4477841,24.2629778 7.73953016,20.5676127 7.73864127,16.0143429 C7.73775238,11.433327 11.4362286,7.73618413 16.0173714,7.73866032 C20.5580698,7.74107302 24.2597206,11.4440571 24.2613714,15.9856444" id="objetive"></path>
            <path d="M24.5317587,9.40840635 C23.4170921,9.40739048 22.5918222,8.57983492 22.5914413,7.46256508 C22.5909968,6.33031111 23.4196952,5.5096127 24.5597587,5.51335873 C25.6556317,5.51691429 26.4894095,6.36688254 26.4866794,7.4776127 C26.4838857,8.58954921 25.6537905,9.40942222 24.5317587,9.40840635" id="visor"></path>
        </g>
    </g>
</svg>